<svg xmlns="http://www.w3.org/2000/svg" width="36" height="36" viewBox="0 0 36 36">
  <path id="Icon_awesome-medal" data-name="Icon awesome-medal" d="M15.732,9.193l-4.861-8.1A2.25,2.25,0,0,0,8.942,0H1.127A1.125,1.125,0,0,0,.205,1.77L8.029,12.947A14.552,14.552,0,0,1,15.732,9.193ZM34.873,0H27.058a2.25,2.25,0,0,0-1.929,1.093l-4.861,8.1a14.556,14.556,0,0,1,7.7,3.753L35.795,1.77A1.125,1.125,0,0,0,34.873,0ZM18,11.25A12.375,12.375,0,1,0,30.375,23.625,12.375,12.375,0,0,0,18,11.25Zm6.505,11.057-2.667,2.6.631,3.672a.807.807,0,0,1-1.171.85L18,27.695l-3.3,1.733a.807.807,0,0,1-1.171-.85l.631-3.672-2.667-2.6a.808.808,0,0,1,.446-1.377l3.686-.537,1.647-3.341a.809.809,0,0,1,1.449,0l1.647,3.341,3.686.537a.808.808,0,0,1,.446,1.377Z" transform="translate(0)" fill="#0d7ab9"/>
</svg>
