<svg xmlns="http://www.w3.org/2000/svg" width="169" height="152" viewBox="0 0 169 152"><g transform="translate(-556 -8)"><text transform="translate(609 46)" font-size="36" font-family="Poppins-ExtraBold, Poppins" font-weight="800"><tspan x="0" y="0">typ</tspan></text><circle cx="8" cy="8" r="8" transform="translate(556 59)" fill="#0d7ab9"/><circle cx="8" cy="8" r="8" transform="translate(573 59)" fill="#0d7ab9"/><circle cx="8" cy="8" r="8" transform="translate(590 59)" fill="#f7ca0c"/><circle cx="8" cy="8" r="8" transform="translate(607 59)" fill="#f7ca0c"/><circle cx="8" cy="8" r="8" transform="translate(624 59)"/><circle cx="8" cy="8" r="8" transform="translate(641 59)" fill="#dd1846"/><circle cx="8" cy="8" r="8" transform="translate(658 59)" fill="#0d7ab9"/><circle cx="8" cy="8" r="8" transform="translate(675 59)" fill="#dd1846"/><circle cx="8" cy="8" r="8" transform="translate(692 59)" fill="#0d7ab9"/><circle cx="8" cy="8" r="8" transform="translate(709 59)" fill="#f7ca0c"/><circle cx="8" cy="8" r="8" transform="translate(556 76)" fill="#f7ca0c"/><circle cx="8" cy="8" r="8" transform="translate(573 76)" fill="#f7ca0c"/><circle cx="8" cy="8" r="8" transform="translate(590 76)" fill="#0d7ab9"/><circle cx="8" cy="8" r="8" transform="translate(607 76)" fill="#dd1846"/><circle cx="8" cy="8" r="8" transform="translate(624 76)" fill="#0d7ab9"/><circle cx="8" cy="8" r="8" transform="translate(641 76)" fill="#f7ca0c"/><circle cx="8" cy="8" r="8" transform="translate(658 76)" fill="#f7ca0c"/><circle cx="8" cy="8" r="8" transform="translate(675 76)" fill="#f7ca0c"/><circle cx="8" cy="8" r="8" transform="translate(692 76)" fill="#dd1846"/><path d="M8,0A8,8,0,1,1,0,8,8,8,0,0,1,8,0Z" transform="translate(709 76)" fill="#f7ca0c"/><circle cx="8" cy="8" r="8" transform="translate(556 93)" fill="#0d7ab9"/><circle cx="8" cy="8" r="8" transform="translate(573 93)" fill="#0d7ab9"/><path d="M8,0A8,8,0,1,1,0,8,8,8,0,0,1,8,0Z" transform="translate(590 93)" fill="#f7ca0c"/><circle cx="8" cy="8" r="8" transform="translate(607 93)" fill="#0d7ab9"/><circle cx="8" cy="8" r="8" transform="translate(624 93)" fill="#dd1846"/><circle cx="8" cy="8" r="8" transform="translate(641 93)" fill="#0d7ab9"/><circle cx="8" cy="8" r="8" transform="translate(658 93)" fill="#0d7ab9"/><circle cx="8" cy="8" r="8" transform="translate(675 93)" fill="#0d7ab9"/><circle cx="8" cy="8" r="8" transform="translate(692 93)" fill="#f7ca0c"/><circle cx="8" cy="8" r="8" transform="translate(556 110)" fill="#f7ca0c"/><circle cx="8" cy="8" r="8" transform="translate(573 110)" fill="#dd1846"/><circle cx="8" cy="8" r="8" transform="translate(590 110)" fill="#0d7ab9"/><circle cx="8" cy="8" r="8" transform="translate(607 110)" fill="#f7ca0c"/><circle cx="8" cy="8" r="8" transform="translate(624 110)" fill="#f7ca0c"/><circle cx="8" cy="8" r="8" transform="translate(641 110)" fill="#0d7ab9"/><circle cx="8" cy="8" r="8" transform="translate(658 110)" fill="#0d7ab9"/><circle cx="8" cy="8" r="8" transform="translate(675 110)" fill="#dd1846"/><circle cx="8" cy="8" r="8" transform="translate(692 110)" fill="#f7ca0c"/><circle cx="8" cy="8" r="8" transform="translate(709 110)" fill="#0d7ab9"/><circle cx="8" cy="8" r="8" transform="translate(556 127)" fill="#dd1846"/><circle cx="8" cy="8" r="8" transform="translate(590 127)" fill="#f7ca0c"/><circle cx="8" cy="8" r="8" transform="translate(607 127)" fill="#0d7ab9"/><circle cx="8" cy="8" r="8" transform="translate(641 127)" fill="#dd1846"/><circle cx="8" cy="8" r="8" transform="translate(658 127)" fill="#dd1846"/><circle cx="8" cy="8" r="8" transform="translate(675 127)" fill="#0d7ab9"/><circle cx="8" cy="8" r="8" transform="translate(590 144)" fill="#dd1846"/><circle cx="8" cy="8" r="8" transform="translate(641 144)" fill="#0d7ab9"/><circle cx="8" cy="8" r="8" transform="translate(692 144)" fill="#dd1846"/></g></svg>